<svg xmlns="http://www.w3.org/2000/svg" width="1119" height="1600" viewBox="0 0 1119 1600" version="1.1"><path d="M 0 472.924 L 0 945.848 25.250 946.174 C 48.541 946.475, 50.859 946.666, 55.122 948.637 C 61.757 951.705, 67.519 957.321, 70.720 963.839 C 73.077 968.640, 73.493 970.716, 73.451 977.500 C 73.373 990.140, 67.778 999.696, 57.330 1005.033 C 52.868 1007.312, 51.128 1007.538, 34.500 1008 L 16.500 1008.500 16.221 1021.750 L 15.942 1035 7.971 1035 L 0 1035 0.156 1266.250 C 0.245 1398.101, 0.643 1486.969, 1.081 1473 C 2.386 1431.344, 6.024 1361.945, 9.519 1312 C 15.350 1228.674, 17.520 1190.449, 19.568 1135 C 20.471 1110.525, 21.647 1088.128, 22.181 1085.229 C 23.262 1079.354, 27.622 1072.845, 32.828 1069.337 C 37.741 1066.026, 45.587 1065.498, 89.500 1065.522 C 142.613 1065.550, 152.504 1067.086, 160.879 1076.600 C 164.386 1080.584, 165.119 1082.379, 167.492 1092.790 C 171.422 1110.030, 180.275 1140.805, 187.690 1163 C 195.088 1185.145, 208.584 1221.049, 210.490 1223.656 C 211.943 1225.643, 209.710 1228.869, 239.323 1182 C 270.780 1132.214, 291.152 1100.717, 296.617 1093.421 C 299.534 1089.528, 305.442 1082.976, 309.748 1078.863 C 324.184 1065.071, 330.099 1063.578, 370.500 1063.533 L 399.500 1063.500 405.500 1066.500 C 412.328 1069.914, 415.463 1073.867, 416.385 1080.223 C 418.683 1096.071, 420.877 1132.882, 431.515 1334 C 433.450 1370.575, 435.495 1409.050, 436.061 1419.500 C 436.627 1429.950, 438.214 1452.225, 439.589 1469 C 442.985 1510.441, 443.800 1539.236, 441.717 1544.172 C 439.046 1550.501, 437.286 1551.054, 411.703 1553.607 C 398.941 1554.881, 382.200 1556.811, 374.500 1557.895 C 350.527 1561.271, 332.101 1562.289, 319.552 1560.930 C 307.608 1559.637, 304.946 1558.701, 300.803 1554.339 C 293.665 1546.824, 289.580 1526.003, 286.514 1481.500 C 284.916 1458.307, 281.740 1416.241, 279.983 1395 C 279.460 1388.675, 279.010 1382.150, 278.984 1380.500 C 278.939 1377.654, 278.861 1377.599, 277.478 1379.428 C 276.676 1380.488, 269.869 1393.538, 262.353 1408.428 C 242.039 1448.666, 232.333 1463.949, 222.164 1471.705 C 216.117 1476.317, 213.509 1476.767, 208.428 1474.071 C 198.876 1469.004, 184.974 1443.559, 173.073 1409.360 C 170.803 1402.837, 168.722 1396.873, 168.449 1396.107 C 168.176 1395.341, 167.770 1394.897, 167.546 1395.120 C 167.143 1395.524, 160.224 1425.961, 147.496 1483.328 C 133.558 1546.146, 128.762 1557.213, 113.422 1561.951 C 102.478 1565.332, 48.787 1567.927, 28 1566.081 C 12.783 1564.729, 6.979 1562.377, 2.750 1555.847 L 0 1551.600 0 1575.800 L 0 1600 512.750 1599.878 C 804.321 1599.809, 1022.912 1599.384, 1019.500 1598.894 C 1012.507 1597.890, 1003.481 1593.580, 1000.872 1590 C 998.030 1586.099, 996.660 1574.182, 997.366 1559.500 C 997.944 1547.499, 1000.189 1529.138, 1001.636 1524.573 C 1002.125 1523.031, 1001.371 1523.306, 997.874 1525.945 C 981.009 1538.669, 956.582 1552.304, 940.565 1557.934 C 917.485 1566.046, 901.534 1566.536, 884.405 1559.658 C 867.291 1552.787, 845.291 1536.598, 836.926 1524.722 C 817.150 1496.643, 805.042 1444.646, 798.805 1361 C 797.070 1337.739, 797.065 1251.564, 798.797 1228 C 802.013 1184.225, 805.788 1147.590, 810.574 1113.679 C 811.986 1103.681, 813.546 1091.957, 814.040 1087.627 C 816.318 1067.701, 822.211 1064.507, 859.500 1062.984 C 906.886 1061.049, 920.746 1061.946, 929.157 1067.493 C 934.314 1070.895, 935.413 1074.947, 934.701 1087.939 C 934.022 1100.330, 931.522 1113.875, 925.464 1138 C 893.787 1264.142, 894.149 1394.460, 926.276 1429.611 C 932.448 1436.364, 937.009 1438.039, 942.342 1435.508 C 953.126 1430.391, 972.285 1401.392, 979.346 1379.500 C 989.322 1348.566, 1000.364 1286.211, 1010.513 1203.500 C 1013.010 1183.150, 1015.520 1164.155, 1016.090 1161.288 C 1019.866 1142.302, 1057.293 1128.797, 1090.556 1134.419 C 1102.110 1136.371, 1106.625 1138.387, 1109.752 1142.988 C 1114.115 1149.408, 1114.373 1152.607, 1112.614 1178.500 C 1105.216 1287.433, 1103.791 1332.489, 1103.914 1453.500 C 1103.971 1508.500, 1103.595 1558.966, 1103.081 1565.646 C 1101.367 1587.885, 1095.933 1594.540, 1077 1597.586 C 1074.525 1597.985, 1063.500 1598.618, 1052.500 1598.994 C 1037.330 1599.512, 1043.005 1599.655, 1076 1599.588 L 1119.500 1599.500 1119.772 799.750 L 1120.044 0 930.772 0.108 C 772.567 0.199, 742.649 0.429, 748.500 1.513 C 758.358 3.339, 770.634 8.051, 779.919 13.575 C 809.585 31.221, 831.193 69.078, 837.058 113.682 C 838.592 125.350, 837.764 156.650, 835.542 171 C 830.268 205.052, 818.709 234.937, 801.027 260.238 C 793.510 270.995, 773.828 291.123, 763 299.125 C 748.812 309.612, 735.385 316.234, 720.500 320.085 C 708.079 323.298, 687.314 323.336, 675.500 320.166 C 632.905 308.738, 600.755 265.632, 593.483 210.199 C 587.151 161.935, 600.197 106.561, 627.573 65.500 C 651.402 29.761, 682.469 7.531, 717 1.512 C 723.245 0.424, 663.906 0.188, 362.250 0.103 L 0 0 0 472.924 M 0.496 473.500 C 0.496 733.650, 0.610 840.224, 0.750 710.332 C 0.890 580.439, 0.890 367.589, 0.750 237.332 C 0.610 107.074, 0.496 213.350, 0.496 473.500 M 364 5.495 C 339.453 10.917, 319.820 24.907, 304.547 47.861 C 278.013 87.738, 270.846 142.565, 284.948 197.796 C 295.277 238.251, 318.364 274.140, 348.648 296.819 C 383.140 322.650, 425.312 324.619, 459.122 301.977 C 467.427 296.415, 482.333 281.278, 488.188 272.461 C 498.702 256.626, 507.958 234.297, 512.213 214.502 C 515.953 197.102, 514.904 161.773, 509.852 135 C 502.231 94.607, 484.057 60.427, 455.880 33.489 C 442.182 20.394, 426.175 11.178, 409 6.499 C 400.116 4.079, 373.137 3.477, 364 5.495 M 143 207.463 C 115.973 213.646, 94.024 236.856, 82.426 271.515 C 75.767 291.414, 73.021 309.489, 73.008 333.506 C 72.976 392.546, 95.260 452.009, 130.757 487.605 C 167.963 524.914, 213.011 528.036, 242.952 495.381 C 270.696 465.121, 281.839 416.411, 274.377 358.009 C 269.444 319.405, 255.195 282.558, 234.165 254.028 C 227.062 244.392, 212.255 229.100, 204.146 223.027 C 185.307 208.917, 162.274 203.054, 143 207.463 M 942.500 245.512 C 913.288 249.731, 887.211 263.614, 864.348 287.119 C 853.625 298.143, 851.422 300.817, 844.259 311.500 C 830.019 332.741, 819.305 359.497, 814.830 385 C 813.080 394.975, 813.105 426.240, 814.872 436 C 822.087 475.870, 846.993 505.184, 882 515.010 C 891.680 517.727, 910.165 518.715, 920.702 517.079 C 974.063 508.793, 1022.390 461.981, 1041.570 400 C 1046.672 383.512, 1048.289 372.568, 1048.365 354 C 1048.443 334.992, 1047.658 329.225, 1042.851 313.500 C 1030.814 274.124, 1004.355 250.036, 967.678 245.061 C 958.130 243.766, 954.088 243.838, 942.500 245.512 M 540 349.671 C 508.669 351.910, 483.821 361.842, 461.476 381.058 C 442.855 397.070, 423.653 419.400, 401.453 450.854 C 352.451 520.286, 327.672 549.761, 281.174 593.926 C 256.114 617.729, 246.001 631.010, 233.071 657.095 C 212.793 698.004, 204.601 749.648, 212.890 784.330 C 216.501 799.438, 221.104 809.586, 231.338 825 C 237.854 834.815, 274.032 871.482, 283.333 877.697 C 312.332 897.078, 355.773 899.091, 416.550 883.870 C 426.997 881.254, 429.059 880.452, 427.588 879.576 C 415.967 872.661, 410.251 866.340, 404.005 853.500 C 395.323 835.649, 389.247 809.663, 386.002 776.500 C 385.410 770.450, 383.600 760.775, 381.979 755 C 373.491 724.754, 366.014 674.405, 366.003 647.424 C 365.984 595.320, 385.736 540.225, 419.579 497.987 C 430.831 483.943, 456.470 459.747, 465.225 454.909 C 467.168 453.836, 467.048 453.468, 469.005 466.500 C 470.424 475.945, 472.860 482.817, 476.467 487.546 C 479.901 492.048, 481.419 492.769, 490.998 494.441 C 500.038 496.019, 506.125 499.101, 510.865 504.499 C 516.851 511.316, 517.997 516.551, 515.817 527.107 C 514.294 534.481, 515.757 539.925, 520.140 543.193 C 521.842 544.462, 524.981 547.135, 527.117 549.132 C 530.420 552.222, 531 553.384, 531 556.914 C 531 562.255, 528.728 567.635, 524.699 571.835 C 520.616 576.093, 517.698 577.566, 511.587 578.456 C 508.080 578.967, 505.827 580.019, 503.712 582.134 C 500.837 585.009, 500.762 585.328, 501.205 592.799 C 501.721 601.498, 503.224 605.047, 508.605 610.273 C 516.452 617.895, 530.743 623.183, 547.139 624.530 C 553.945 625.090, 556.616 625.833, 561.500 628.530 C 586.430 642.292, 608.529 665.742, 621.875 692.596 C 643.982 737.078, 646.048 785.168, 627.440 822.119 L 623.816 829.315 635.658 828.680 C 650.357 827.892, 664.429 824.429, 676 818.751 C 698.477 807.722, 719.088 774.928, 724.552 741.500 C 729.656 710.270, 719.013 677.293, 696.500 654.580 C 681.831 639.780, 670.874 634.842, 643 630.467 C 636.249 629.408, 628.618 626.286, 626.021 623.522 C 624.463 621.864, 623.556 619.435, 623.231 616.050 C 622.602 609.508, 626.282 601.622, 631.653 598 C 637.179 594.273, 647.620 594.599, 658.502 598.837 C 675.955 605.635, 696.204 619.333, 713.363 635.949 C 741.218 662.923, 755 693.889, 755 729.500 C 755 750.102, 750.692 768.028, 741.308 786.479 C 724.374 819.773, 699.154 842.219, 664 855.282 C 655.528 858.430, 650.666 859.794, 636.500 862.994 C 634.300 863.491, 629.450 864.209, 625.722 864.590 C 621.994 864.971, 618.753 865.591, 618.519 865.969 C 618.285 866.347, 621.561 867.464, 625.797 868.450 C 630.034 869.436, 642.725 872.849, 654 876.034 C 708.146 891.327, 722.728 894.001, 751.974 893.999 C 774.769 893.997, 788.895 891.255, 807 883.317 C 845.678 866.359, 874.516 835.329, 886.894 797.350 C 891.887 782.029, 893.129 774.574, 893.699 756.500 C 894.307 737.211, 892.880 724.427, 888.009 705.535 C 879.135 671.118, 865.553 644.948, 841.050 615.057 C 836.952 610.058, 823.712 596.413, 811.628 584.734 C 785.947 559.915, 773.728 546.757, 757.941 526.922 C 738.672 502.711, 732.618 494.179, 715.073 466.500 C 670.463 396.122, 646.398 372.785, 603.697 358.497 C 590.124 353.955, 576.334 351.092, 562.500 349.945 C 551.726 349.051, 549.116 349.020, 540 349.671 M 580 859.448 C 589.868 861.047, 593.929 861.254, 589.500 859.933 C 587.850 859.441, 583.125 858.821, 579 858.555 L 571.500 858.071 580 859.448 M 910.184 945.118 C 897.940 947.155, 885.107 956.506, 879.590 967.410 C 871.807 982.792, 872.245 1002.269, 880.698 1016.735 C 883.872 1022.167, 891.629 1029.135, 897.656 1031.968 C 908.672 1037.147, 924.464 1038.183, 936.649 1034.527 C 941.659 1033.024, 954 1025.594, 954 1024.080 C 954 1023.094, 944.164 1013, 943.203 1013 C 942.797 1013, 940.857 1014.092, 938.892 1015.427 C 926.851 1023.609, 908.614 1022.460, 899.072 1012.918 C 893.692 1007.539, 890.606 999.775, 890.557 991.500 C 890.480 978.402, 896.174 968.508, 906.771 963.324 C 911.581 960.970, 913.764 960.525, 920.495 960.521 C 928.567 960.517, 932.851 961.841, 940.108 966.586 C 942.706 968.284, 942.740 968.270, 948.083 963.199 L 953.450 958.107 950.995 955.495 C 947.672 951.958, 935.718 946.223, 929.114 944.999 C 922.878 943.843, 917.654 943.875, 910.184 945.118 M 374.754 946.084 C 368.364 947.590, 359.547 952.646, 354.655 957.608 C 337.576 974.931, 337.746 1007.970, 355 1024.909 C 371.330 1040.941, 403.839 1040.599, 419.775 1024.228 C 425.135 1018.722, 429.466 1010.587, 431.104 1002.952 C 432.793 995.075, 431.765 978.627, 429.169 972 C 424.545 960.197, 414.337 950.729, 402.192 946.977 C 395.339 944.861, 381.811 944.420, 374.754 946.084 M 173 990.540 L 173 1035.081 181.250 1034.790 L 189.500 1034.500 189.777 1019.750 L 190.053 1005 197.906 1005 L 205.759 1005 209.426 1009.475 C 211.443 1011.937, 213.638 1014.524, 214.303 1015.225 C 214.968 1015.926, 219.085 1020.663, 223.450 1025.750 L 231.388 1035 241.194 1035 C 246.587 1035, 250.996 1034.662, 250.991 1034.250 C 250.981 1033.396, 245.188 1026.533, 233.069 1013.017 L 224.713 1003.697 230.010 1001.722 C 241.203 997.546, 246.652 988.467, 246.347 974.500 C 246.175 966.601, 244.413 961.679, 239.932 956.576 C 231.932 947.464, 225.990 946.027, 196.250 946.012 L 173 946 173 990.540 M 563.667 946.667 C 563.300 947.033, 563 950.633, 563 954.667 L 563 962 576.500 962 L 590 962 590 981.318 C 590 1003.046, 588.961 1008.696, 583.910 1014.449 C 579.749 1019.189, 573.643 1021.339, 565.793 1020.830 C 558.068 1020.329, 552.262 1017.604, 549.234 1013.059 C 546.933 1009.604, 546.625 1008.668, 545.512 1001.750 L 544.909 998 536.955 998 L 529 998 529 1001.290 C 529 1006.042, 531.730 1015.810, 534.212 1019.943 C 539.259 1028.343, 548.324 1034.127, 559.489 1036.072 C 582.849 1040.139, 602.446 1027.240, 606.014 1005.449 C 606.550 1002.177, 606.991 987.462, 606.994 972.750 L 607 946 585.667 946 C 573.933 946, 564.033 946.300, 563.667 946.667 M 710 990.500 L 710 1035 743 1035 L 776 1035 776 1026.500 L 776 1018 751 1018 L 726 1018 726 1008.500 L 726 999 750 999 L 774 999 774 991 L 774 983 749.965 983 L 725.930 983 726.215 972.750 L 726.500 962.500 751.250 962.233 L 776 961.965 776 953.983 L 776 946 743 946 L 710 946 710 990.500 M 1045.208 953.750 L 1045.500 961.500 1059.250 961.778 L 1073 962.056 1073 998.569 L 1073 1035.081 1081.250 1034.790 L 1089.500 1034.500 1089.500 998.250 C 1089.500 974.786, 1089.853 961.980, 1090.500 961.945 C 1091.050 961.914, 1096.694 961.936, 1103.041 961.993 C 1109.389 962.051, 1115.351 961.802, 1116.291 961.442 C 1117.690 960.905, 1118 959.444, 1118 953.393 L 1118 946 1081.458 946 L 1044.916 946 1045.208 953.750 M 377.372 961.212 C 371.510 963.100, 364.715 969.205, 361.518 975.458 C 358.811 980.751, 358.502 982.292, 358.516 990.429 C 358.529 998.080, 358.936 1000.361, 361.117 1005 C 364.378 1011.937, 368.067 1015.636, 374.847 1018.766 C 379.558 1020.942, 381.231 1021.186, 388.917 1020.818 C 396.185 1020.471, 398.427 1019.940, 402.362 1017.634 C 418.401 1008.234, 420.907 981.812, 407.072 967.976 C 404.157 965.062, 400.609 962.714, 397.537 961.667 C 392.190 959.845, 382.307 959.622, 377.372 961.212 M 16 977.500 L 16 993 30.750 992.998 C 42.797 992.997, 46.138 992.676, 48.980 991.248 C 59.778 985.823, 59.769 969.790, 48.964 964.250 C 45.018 962.226, 43.139 962, 30.288 962 L 16 962 16 977.500 M 190 976 L 190 990 204.184 990 C 216.427 990, 218.947 989.720, 222.591 987.956 C 232.466 983.176, 232.542 968.332, 222.717 963.670 C 219.929 962.347, 216.164 962, 204.599 962 L 190 962 190 976 M 0.492 1266 C 0.492 1393.325, 0.608 1445.413, 0.750 1381.750 C 0.892 1318.088, 0.892 1213.913, 0.750 1150.250 C 0.608 1086.588, 0.492 1138.675, 0.492 1266 M 611.500 1064.563 C 576.081 1069.367, 554.602 1079.761, 547.323 1095.620 C 546.030 1098.436, 542.485 1112.386, 539.444 1126.620 C 531.291 1164.780, 521.817 1208.206, 513.507 1245.500 C 509.463 1263.650, 505.461 1281.875, 504.614 1286 C 503.766 1290.125, 501.231 1302.275, 498.979 1313 C 484.059 1384.072, 472.452 1445.552, 461.547 1511.292 C 455.094 1550.187, 454.984 1551.163, 456.629 1554.631 C 458.555 1558.690, 463.684 1562.379, 469.500 1563.890 C 475.825 1565.532, 494.125 1566.943, 511.090 1567.095 C 530.417 1567.269, 533.684 1566.199, 539.194 1557.890 C 546.385 1547.047, 551.123 1532.937, 560.982 1493 C 569.427 1458.795, 575.919 1427.411, 580.014 1401 C 584.548 1371.753, 586.452 1366.812, 595.039 1362 C 599.226 1359.653, 600.390 1359.500, 614 1359.500 C 621.975 1359.500, 629.288 1359.823, 630.250 1360.219 C 631.823 1360.865, 632.001 1362.731, 632.012 1378.719 C 632.044 1426.294, 634.712 1497.032, 637.533 1525.090 C 639.901 1548.644, 644.547 1562.558, 651.094 1565.711 C 658.173 1569.119, 712.963 1568.012, 739.797 1563.919 C 774.358 1558.646, 791.557 1551.211, 793.531 1540.688 C 793.905 1538.692, 791.613 1521.793, 787.599 1496.967 C 777.291 1433.207, 773.034 1404.824, 768.480 1369.500 C 758.230 1290.002, 737.863 1185.864, 716.096 1101.654 C 711.206 1082.735, 709.725 1078.322, 707.478 1075.977 C 704.376 1072.739, 697.685 1069.631, 689.291 1067.530 C 672.315 1063.280, 632.230 1061.751, 611.500 1064.563 M 623.464 1172.414 C 620.475 1176.977, 607.961 1205.091, 604.776 1214.402 C 601.708 1223.369, 601.651 1223.819, 603.284 1226.311 C 605.705 1230.005, 610.535 1230.988, 626.295 1230.994 C 639.613 1231, 640.176 1230.915, 642.545 1228.545 C 643.953 1227.137, 645 1224.926, 645 1223.359 C 645 1218.932, 641.283 1206.958, 635.342 1192.247 C 632.289 1184.686, 629.053 1176.588, 628.153 1174.250 C 626.263 1169.345, 625.636 1169.099, 623.464 1172.414 M 0.432 1576 C 0.432 1589.475, 0.574 1594.987, 0.747 1588.250 C 0.920 1581.513, 0.920 1570.487, 0.747 1563.750 C 0.574 1557.013, 0.432 1562.525, 0.432 1576" stroke="none" fill="#f4f4f4" fill-rule="evenodd"/><path d="M 717 1.512 C 689.810 6.251, 662.921 22.224, 642.476 45.780 C 596.747 98.467, 579.711 179.972, 601.169 243.397 C 604.351 252.801, 612.247 268.646, 618.159 277.492 C 632.246 298.569, 653.241 314.194, 675.500 320.166 C 687.314 323.336, 708.079 323.298, 720.500 320.085 C 735.385 316.234, 748.812 309.612, 763 299.125 C 773.828 291.123, 793.510 270.995, 801.027 260.238 C 818.709 234.937, 830.268 205.052, 835.542 171 C 837.764 156.650, 838.592 125.350, 837.058 113.682 C 833.331 85.338, 822.415 57.563, 807.489 38.449 C 784.771 9.356, 751.027 -4.418, 717 1.512 M 364 5.495 C 339.453 10.917, 319.820 24.907, 304.547 47.861 C 278.013 87.738, 270.846 142.565, 284.948 197.796 C 295.277 238.251, 318.364 274.140, 348.648 296.819 C 383.140 322.650, 425.312 324.619, 459.122 301.977 C 467.427 296.415, 482.333 281.278, 488.188 272.461 C 498.702 256.626, 507.958 234.297, 512.213 214.502 C 515.953 197.102, 514.904 161.773, 509.852 135 C 502.231 94.607, 484.057 60.427, 455.880 33.489 C 442.182 20.394, 426.175 11.178, 409 6.499 C 400.116 4.079, 373.137 3.477, 364 5.495 M 143 207.463 C 115.973 213.646, 94.024 236.856, 82.426 271.515 C 75.767 291.414, 73.021 309.489, 73.008 333.506 C 72.976 392.546, 95.260 452.009, 130.757 487.605 C 167.963 524.914, 213.011 528.036, 242.952 495.381 C 270.696 465.121, 281.839 416.411, 274.377 358.009 C 269.444 319.405, 255.195 282.558, 234.165 254.028 C 227.062 244.392, 212.255 229.100, 204.146 223.027 C 185.307 208.917, 162.274 203.054, 143 207.463 M 942.500 245.512 C 913.288 249.731, 887.211 263.614, 864.348 287.119 C 853.625 298.143, 851.422 300.817, 844.259 311.500 C 830.019 332.741, 819.305 359.497, 814.830 385 C 813.080 394.975, 813.105 426.240, 814.872 436 C 822.087 475.870, 846.993 505.184, 882 515.010 C 891.680 517.727, 910.165 518.715, 920.702 517.079 C 974.063 508.793, 1022.390 461.981, 1041.570 400 C 1046.672 383.512, 1048.289 372.568, 1048.365 354 C 1048.443 334.992, 1047.658 329.225, 1042.851 313.500 C 1030.814 274.124, 1004.355 250.036, 967.678 245.061 C 958.130 243.766, 954.088 243.838, 942.500 245.512 M 540 349.671 C 508.669 351.910, 483.821 361.842, 461.476 381.058 C 442.855 397.070, 423.653 419.400, 401.453 450.854 C 352.451 520.286, 327.672 549.761, 281.174 593.926 C 256.114 617.729, 246.001 631.010, 233.071 657.095 C 212.793 698.004, 204.601 749.648, 212.890 784.330 C 216.501 799.438, 221.104 809.586, 231.338 825 C 237.854 834.815, 274.032 871.482, 283.333 877.697 C 312.332 897.078, 355.773 899.091, 416.550 883.870 C 426.997 881.254, 429.059 880.452, 427.588 879.576 C 415.967 872.661, 410.251 866.340, 404.005 853.500 C 395.323 835.649, 389.247 809.663, 386.002 776.500 C 385.410 770.450, 383.600 760.775, 381.979 755 C 373.491 724.754, 366.014 674.405, 366.003 647.424 C 365.984 595.320, 385.736 540.225, 419.579 497.987 C 430.831 483.943, 456.470 459.747, 465.225 454.909 C 467.168 453.836, 467.048 453.468, 469.005 466.500 C 470.424 475.945, 472.860 482.817, 476.467 487.546 C 479.901 492.048, 481.419 492.769, 490.998 494.441 C 500.038 496.019, 506.125 499.101, 510.865 504.499 C 516.851 511.316, 517.997 516.551, 515.817 527.107 C 514.294 534.481, 515.757 539.925, 520.140 543.193 C 521.842 544.462, 524.981 547.135, 527.117 549.132 C 530.420 552.222, 531 553.384, 531 556.914 C 531 562.255, 528.728 567.635, 524.699 571.835 C 520.616 576.093, 517.698 577.566, 511.587 578.456 C 508.080 578.967, 505.827 580.019, 503.712 582.134 C 500.837 585.009, 500.762 585.328, 501.205 592.799 C 501.721 601.498, 503.224 605.047, 508.605 610.273 C 516.452 617.895, 530.743 623.183, 547.139 624.530 C 553.945 625.090, 556.616 625.833, 561.500 628.530 C 586.430 642.292, 608.529 665.742, 621.875 692.596 C 643.982 737.078, 646.048 785.168, 627.440 822.119 L 623.816 829.315 635.658 828.680 C 650.357 827.892, 664.429 824.429, 676 818.751 C 698.477 807.722, 719.088 774.928, 724.552 741.500 C 729.656 710.270, 719.013 677.293, 696.500 654.580 C 681.831 639.780, 670.874 634.842, 643 630.467 C 636.249 629.408, 628.618 626.286, 626.021 623.522 C 624.463 621.864, 623.556 619.435, 623.231 616.050 C 622.602 609.508, 626.282 601.622, 631.653 598 C 637.179 594.273, 647.620 594.599, 658.502 598.837 C 675.955 605.635, 696.204 619.333, 713.363 635.949 C 741.218 662.923, 755 693.889, 755 729.500 C 755 750.102, 750.692 768.028, 741.308 786.479 C 724.374 819.773, 699.154 842.219, 664 855.282 C 655.528 858.430, 650.666 859.794, 636.500 862.994 C 634.300 863.491, 629.450 864.209, 625.722 864.590 C 621.994 864.971, 618.753 865.591, 618.519 865.969 C 618.285 866.347, 621.561 867.464, 625.797 868.450 C 630.034 869.436, 642.725 872.849, 654 876.034 C 708.146 891.327, 722.728 894.001, 751.974 893.999 C 774.769 893.997, 788.895 891.255, 807 883.317 C 845.678 866.359, 874.516 835.329, 886.894 797.350 C 891.887 782.029, 893.129 774.574, 893.699 756.500 C 894.307 737.211, 892.880 724.427, 888.009 705.535 C 879.135 671.118, 865.553 644.948, 841.050 615.057 C 836.952 610.058, 823.712 596.413, 811.628 584.734 C 785.947 559.915, 773.728 546.757, 757.941 526.922 C 738.672 502.711, 732.618 494.179, 715.073 466.500 C 670.463 396.122, 646.398 372.785, 603.697 358.497 C 590.124 353.955, 576.334 351.092, 562.500 349.945 C 551.726 349.051, 549.116 349.020, 540 349.671 M 580 859.448 C 589.868 861.047, 593.929 861.254, 589.500 859.933 C 587.850 859.441, 583.125 858.821, 579 858.555 L 571.500 858.071 580 859.448 M 910.184 945.118 C 897.940 947.155, 885.107 956.506, 879.590 967.410 C 871.807 982.792, 872.245 1002.269, 880.698 1016.735 C 883.872 1022.167, 891.629 1029.135, 897.656 1031.968 C 908.672 1037.147, 924.464 1038.183, 936.649 1034.527 C 941.659 1033.024, 954 1025.594, 954 1024.080 C 954 1023.094, 944.164 1013, 943.203 1013 C 942.797 1013, 940.857 1014.092, 938.892 1015.427 C 926.851 1023.609, 908.614 1022.460, 899.072 1012.918 C 893.692 1007.539, 890.606 999.775, 890.557 991.500 C 890.480 978.402, 896.174 968.508, 906.771 963.324 C 911.581 960.970, 913.764 960.525, 920.495 960.521 C 928.567 960.517, 932.851 961.841, 940.108 966.586 C 942.706 968.284, 942.740 968.270, 948.083 963.199 L 953.450 958.107 950.995 955.495 C 947.672 951.958, 935.718 946.223, 929.114 944.999 C 922.878 943.843, 917.654 943.875, 910.184 945.118 M 374.754 946.084 C 368.364 947.590, 359.547 952.646, 354.655 957.608 C 337.576 974.931, 337.746 1007.970, 355 1024.909 C 371.330 1040.941, 403.839 1040.599, 419.775 1024.228 C 425.135 1018.722, 429.466 1010.587, 431.104 1002.952 C 432.793 995.075, 431.765 978.627, 429.169 972 C 424.545 960.197, 414.337 950.729, 402.192 946.977 C 395.339 944.861, 381.811 944.420, 374.754 946.084 M 0 990.424 L 0 1035 7.971 1035 L 15.942 1035 16.221 1021.750 L 16.500 1008.500 34.500 1008 C 51.128 1007.538, 52.868 1007.312, 57.330 1005.033 C 67.778 999.696, 73.373 990.140, 73.451 977.500 C 73.493 970.716, 73.077 968.640, 70.720 963.839 C 67.519 957.321, 61.757 951.705, 55.122 948.637 C 50.859 946.666, 48.541 946.475, 25.250 946.174 L 0 945.848 0 990.424 M 173 990.540 L 173 1035.081 181.250 1034.790 L 189.500 1034.500 189.777 1019.750 L 190.053 1005 197.906 1005 L 205.759 1005 209.426 1009.475 C 211.443 1011.937, 213.638 1014.524, 214.303 1015.225 C 214.968 1015.926, 219.085 1020.663, 223.450 1025.750 L 231.388 1035 241.194 1035 C 246.587 1035, 250.996 1034.662, 250.991 1034.250 C 250.981 1033.396, 245.188 1026.533, 233.069 1013.017 L 224.713 1003.697 230.010 1001.722 C 241.203 997.546, 246.652 988.467, 246.347 974.500 C 246.175 966.601, 244.413 961.679, 239.932 956.576 C 231.932 947.464, 225.990 946.027, 196.250 946.012 L 173 946 173 990.540 M 563.667 946.667 C 563.300 947.033, 563 950.633, 563 954.667 L 563 962 576.500 962 L 590 962 590 981.318 C 590 1003.046, 588.961 1008.696, 583.910 1014.449 C 579.749 1019.189, 573.643 1021.339, 565.793 1020.830 C 558.068 1020.329, 552.262 1017.604, 549.234 1013.059 C 546.933 1009.604, 546.625 1008.668, 545.512 1001.750 L 544.909 998 536.955 998 L 529 998 529 1001.290 C 529 1006.042, 531.730 1015.810, 534.212 1019.943 C 539.259 1028.343, 548.324 1034.127, 559.489 1036.072 C 582.849 1040.139, 602.446 1027.240, 606.014 1005.449 C 606.550 1002.177, 606.991 987.462, 606.994 972.750 L 607 946 585.667 946 C 573.933 946, 564.033 946.300, 563.667 946.667 M 710 990.500 L 710 1035 743 1035 L 776 1035 776 1026.500 L 776 1018 751 1018 L 726 1018 726 1008.500 L 726 999 750 999 L 774 999 774 991 L 774 983 749.965 983 L 725.930 983 726.215 972.750 L 726.500 962.500 751.250 962.233 L 776 961.965 776 953.983 L 776 946 743 946 L 710 946 710 990.500 M 1045.208 953.750 L 1045.500 961.500 1059.250 961.778 L 1073 962.056 1073 998.569 L 1073 1035.081 1081.250 1034.790 L 1089.500 1034.500 1089.500 998.250 C 1089.500 974.786, 1089.853 961.980, 1090.500 961.945 C 1091.050 961.914, 1096.694 961.936, 1103.041 961.993 C 1109.389 962.051, 1115.351 961.802, 1116.291 961.442 C 1117.690 960.905, 1118 959.444, 1118 953.393 L 1118 946 1081.458 946 L 1044.916 946 1045.208 953.750 M 377.372 961.212 C 371.510 963.100, 364.715 969.205, 361.518 975.458 C 358.811 980.751, 358.502 982.292, 358.516 990.429 C 358.529 998.080, 358.936 1000.361, 361.117 1005 C 364.378 1011.937, 368.067 1015.636, 374.847 1018.766 C 379.558 1020.942, 381.231 1021.186, 388.917 1020.818 C 396.185 1020.471, 398.427 1019.940, 402.362 1017.634 C 418.401 1008.234, 420.907 981.812, 407.072 967.976 C 404.157 965.062, 400.609 962.714, 397.537 961.667 C 392.190 959.845, 382.307 959.622, 377.372 961.212 M 16 977.500 L 16 993 30.750 992.998 C 42.797 992.997, 46.138 992.676, 48.980 991.248 C 59.778 985.823, 59.769 969.790, 48.964 964.250 C 45.018 962.226, 43.139 962, 30.288 962 L 16 962 16 977.500 M 190 976 L 190 990 204.184 990 C 216.427 990, 218.947 989.720, 222.591 987.956 C 232.466 983.176, 232.542 968.332, 222.717 963.670 C 219.929 962.347, 216.164 962, 204.599 962 L 190 962 190 976 M 856 1063.075 C 822.715 1064.423, 816.261 1068.199, 814.040 1087.627 C 813.546 1091.957, 811.986 1103.681, 810.574 1113.679 C 805.788 1147.590, 802.013 1184.225, 798.797 1228 C 797.065 1251.564, 797.070 1337.739, 798.805 1361 C 805.042 1444.646, 817.150 1496.643, 836.926 1524.722 C 845.291 1536.598, 867.291 1552.787, 884.405 1559.658 C 901.534 1566.536, 917.485 1566.046, 940.565 1557.934 C 956.609 1552.294, 980.988 1538.681, 997.945 1525.892 C 1000.909 1523.657, 1002.171 1523.112, 1001.732 1524.257 C 999.710 1529.525, 997.615 1550.050, 997.574 1565 C 997.517 1585.128, 998.395 1588.825, 1004.232 1593.053 C 1011.829 1598.557, 1016.980 1599.410, 1041 1599.148 C 1084.746 1598.670, 1094.305 1596.016, 1100.006 1582.765 C 1103.557 1574.509, 1104.022 1559.125, 1103.914 1453.500 C 1103.791 1332.489, 1105.216 1287.433, 1112.614 1178.500 C 1114.373 1152.607, 1114.115 1149.408, 1109.752 1142.988 C 1106.625 1138.387, 1102.110 1136.371, 1090.556 1134.419 C 1057.293 1128.797, 1019.866 1142.302, 1016.090 1161.288 C 1015.520 1164.155, 1013.010 1183.150, 1010.513 1203.500 C 1000.364 1286.211, 989.322 1348.566, 979.346 1379.500 C 972.285 1401.392, 953.126 1430.391, 942.342 1435.508 C 937.009 1438.039, 932.448 1436.364, 926.276 1429.611 C 894.149 1394.460, 893.787 1264.142, 925.464 1138 C 931.522 1113.875, 934.022 1100.330, 934.701 1087.939 C 935.413 1074.947, 934.314 1070.895, 929.157 1067.493 C 920.827 1061.999, 905.479 1061.072, 856 1063.075 M 342.021 1064.063 C 325.042 1066.170, 318.384 1069.632, 305.728 1082.932 C 295.508 1093.671, 286.872 1106.658, 229.546 1197.500 C 220.869 1211.250, 213.187 1223.118, 212.475 1223.874 C 210.767 1225.687, 210.072 1224.273, 201.231 1201 C 187.750 1165.517, 174.064 1121.622, 167.492 1092.790 C 165.119 1082.379, 164.386 1080.584, 160.879 1076.600 C 152.504 1067.086, 142.613 1065.550, 89.500 1065.522 C 45.587 1065.498, 37.741 1066.026, 32.828 1069.337 C 27.622 1072.845, 23.262 1079.354, 22.181 1085.229 C 21.647 1088.128, 20.471 1110.525, 19.568 1135 C 17.520 1190.449, 15.350 1228.674, 9.519 1312 C 4.071 1389.843, 0.014 1483.029, 0.004 1530.550 L 0 1551.600 2.750 1555.847 C 6.979 1562.377, 12.783 1564.729, 28 1566.081 C 48.787 1567.927, 102.478 1565.332, 113.422 1561.951 C 128.762 1557.213, 133.558 1546.146, 147.496 1483.328 C 160.224 1425.961, 167.143 1395.524, 167.546 1395.120 C 167.770 1394.897, 168.176 1395.341, 168.449 1396.107 C 168.722 1396.873, 170.803 1402.837, 173.073 1409.360 C 184.974 1443.559, 198.876 1469.004, 208.428 1474.071 C 213.509 1476.767, 216.117 1476.317, 222.164 1471.705 C 232.333 1463.949, 242.039 1448.666, 262.353 1408.428 C 269.869 1393.538, 276.676 1380.488, 277.478 1379.428 C 278.861 1377.599, 278.939 1377.654, 278.984 1380.500 C 279.010 1382.150, 279.460 1388.675, 279.983 1395 C 281.740 1416.241, 284.916 1458.307, 286.514 1481.500 C 289.580 1526.003, 293.665 1546.824, 300.803 1554.339 C 304.946 1558.701, 307.608 1559.637, 319.552 1560.930 C 332.101 1562.289, 350.527 1561.271, 374.500 1557.895 C 382.200 1556.811, 398.941 1554.881, 411.703 1553.607 C 437.286 1551.054, 439.046 1550.501, 441.717 1544.172 C 443.800 1539.236, 442.985 1510.441, 439.589 1469 C 438.214 1452.225, 436.627 1429.950, 436.061 1419.500 C 435.495 1409.050, 433.450 1370.575, 431.515 1334 C 420.877 1132.882, 418.683 1096.071, 416.385 1080.223 C 415.468 1073.902, 412.323 1069.911, 405.615 1066.560 L 399.730 1063.619 374.615 1063.377 C 360.802 1063.244, 346.134 1063.552, 342.021 1064.063 M 611.500 1064.563 C 576.081 1069.367, 554.602 1079.761, 547.323 1095.620 C 546.030 1098.436, 542.485 1112.386, 539.444 1126.620 C 531.291 1164.780, 521.817 1208.206, 513.507 1245.500 C 509.463 1263.650, 505.461 1281.875, 504.614 1286 C 503.766 1290.125, 501.231 1302.275, 498.979 1313 C 484.059 1384.072, 472.452 1445.552, 461.547 1511.292 C 455.094 1550.187, 454.984 1551.163, 456.629 1554.631 C 458.555 1558.690, 463.684 1562.379, 469.500 1563.890 C 475.825 1565.532, 494.125 1566.943, 511.090 1567.095 C 530.417 1567.269, 533.684 1566.199, 539.194 1557.890 C 546.385 1547.047, 551.123 1532.937, 560.982 1493 C 569.427 1458.795, 575.919 1427.411, 580.014 1401 C 584.548 1371.753, 586.452 1366.812, 595.039 1362 C 599.226 1359.653, 600.390 1359.500, 614 1359.500 C 621.975 1359.500, 629.288 1359.823, 630.250 1360.219 C 631.823 1360.865, 632.001 1362.731, 632.012 1378.719 C 632.044 1426.294, 634.712 1497.032, 637.533 1525.090 C 639.901 1548.644, 644.547 1562.558, 651.094 1565.711 C 658.173 1569.119, 712.963 1568.012, 739.797 1563.919 C 774.358 1558.646, 791.557 1551.211, 793.531 1540.688 C 793.905 1538.692, 791.613 1521.793, 787.599 1496.967 C 777.291 1433.207, 773.034 1404.824, 768.480 1369.500 C 758.230 1290.002, 737.863 1185.864, 716.096 1101.654 C 711.206 1082.735, 709.725 1078.322, 707.478 1075.977 C 704.376 1072.739, 697.685 1069.631, 689.291 1067.530 C 672.315 1063.280, 632.230 1061.751, 611.500 1064.563 M 623.464 1172.414 C 620.475 1176.977, 607.961 1205.091, 604.776 1214.402 C 601.708 1223.369, 601.651 1223.819, 603.284 1226.311 C 605.705 1230.005, 610.535 1230.988, 626.295 1230.994 C 639.613 1231, 640.176 1230.915, 642.545 1228.545 C 643.953 1227.137, 645 1224.926, 645 1223.359 C 645 1218.932, 641.283 1206.958, 635.342 1192.247 C 632.289 1184.686, 629.053 1176.588, 628.153 1174.250 C 626.263 1169.345, 625.636 1169.099, 623.464 1172.414" stroke="none" fill="#913454" fill-rule="evenodd"/></svg>